# xmcd CD database file
#
# Track frame offsets:
#	182
#	12037
#	26330
#	48655
#	74220
#	85547
#	99257
#	114675
#	125802
#	145722
#	157642
#	172280
#	190827
#
# Disc length: 2815 seconds
#
# Revision: 0
# Processed by: cddbd v1.4PL0 Copyright (c) Steve Scherf et al.
# Submitted via: CDex 1.40Beta9
#
DISCID=aa0afd0d
DTITLE=Greg Piccolo - Heavy Juice
DYEAR=1990
DGENRE=Blues
TTITLE0=The Hammer
TTITLE1=Baby I'm Gone
TTITLE2=Bolo Blues
TTITLE3=The Freeze
TTITLE4=It's Obdacious
TTITLE5=Mushmouth
TTITLE6=Brother Jug's Sermon
TTITLE7=Plaid Laces
TTITLE8=Count Your Blessings
TTITLE9=Highballin' Daddy
TTITLE10=Hawk's Barrel House
TTITLE11=Pic's Gospel Groove
TTITLE12=Big Boss Man
EXTD=YEAR: 1990 ID3G: 0
EXTT0=
EXTT1=
EXTT2=
EXTT3=
EXTT4=
EXTT5=
EXTT6=
EXTT7=
EXTT8=
EXTT9=
EXTT10=
EXTT11=
EXTT12=
PLAYORDER=
